<?xml version="1.0" encoding="UTF-8" standalone="no"?>
<!DOCTYPE svg PUBLIC "-//W3C//DTD SVG 1.1//EN" "http://www.w3.org/Graphics/SVG/1.1/DTD/svg11.dtd">
<svg width="100%" height="100%" viewBox="0 0 400 400" version="1.1" xmlns="http://www.w3.org/2000/svg" xmlns:xlink="http://www.w3.org/1999/xlink" xml:space="preserve" xmlns:serif="http://www.serif.com/" style="fill-rule:evenodd;clip-rule:evenodd;stroke-linejoin:round;stroke-miterlimit:2;">
    <rect id="Artboard1" x="0" y="0" width="400" height="400" style="fill:none;"/>
    <g id="Artboard11" serif:id="Artboard1">
        <g transform="matrix(1,0,0,1,1.02259,1.44234)">
            <circle cx="198.977" cy="198.558" r="196.426" style="fill:rgb(235,235,235);"/>
        </g>
        <g transform="matrix(7.86326,0,0,11.2664,-785.728,-1615.29)">
            <path d="M126.447,158.827C125.829,158.802 125.346,159.054 124.981,159.523C124.757,159.81 124.575,160.135 124.402,160.458C123.848,161.495 123.317,162.545 122.755,163.578C122.548,163.959 122.28,164.306 121.952,164.801C121.811,164.503 121.717,164.381 121.696,164.247C121.587,163.547 121.398,162.841 121.42,162.142C121.47,160.529 121.59,158.916 121.748,157.308C121.872,156.044 122.099,154.79 122.27,153.531C122.333,153.071 122.414,152.605 122.401,152.145C122.375,151.233 121.827,150.576 121.007,150.38C120.291,150.208 119.526,150.547 119.079,151.284C118.813,151.722 118.607,152.197 118.374,152.655C117.486,154.402 116.632,156.167 115.7,157.89C114.978,159.226 114.163,160.513 113.169,161.673C113.036,161.828 112.944,162.068 112.581,162.001C112.529,161.615 112.423,161.209 112.43,160.804C112.449,159.678 112.471,158.55 112.575,157.43C112.71,155.97 112.925,154.517 113.106,153.06C113.181,152.453 113.299,151.848 113.319,151.24C113.341,150.57 113.01,150.065 112.386,149.786C111.732,149.494 111.137,149.641 110.611,150.087C110.241,150.401 110.044,150.825 109.975,151.3C109.765,152.752 109.57,154.207 109.36,155.659C109.075,157.628 108.943,159.605 109.101,161.591C109.179,162.572 109.399,163.532 109.877,164.404C110.555,165.64 111.984,166.543 113.753,165.589C114.01,165.451 114.256,165.283 114.484,165.1C115.625,164.182 116.472,163.011 117.281,161.808C117.496,161.489 117.709,161.167 118.014,160.711C118.035,161.091 118.046,161.303 118.059,161.514C118.112,162.393 118.136,163.275 118.228,164.15C118.317,165.008 118.571,165.828 119.005,166.583C120.15,168.575 122.263,168.605 123.685,167.639C124.346,167.189 124.884,166.619 125.271,165.926C126.142,164.365 126.986,162.788 127.835,161.215C127.904,161.087 127.95,160.942 127.982,160.8C128.209,159.782 127.486,158.868 126.447,158.827L126.447,158.827Z" style="fill-rule:nonzero;"/>
            <path d="M144.688,158.814C144.199,158.284 143.397,158.128 142.732,158.477C142.409,158.646 142.121,158.883 141.823,159.097C140.928,159.739 140.038,160.39 139.139,161.027C138.95,161.161 138.731,161.253 138.405,161.43C138.405,161.001 138.399,160.713 138.406,160.426C138.43,159.471 138.477,158.517 138.478,157.562C138.48,156.901 138.432,156.24 138.385,155.58C138.354,155.142 138.318,154.7 138.227,154.272C137.97,153.048 136.752,152.407 135.565,152.847C135.431,152.897 135.292,152.934 135.161,152.975C134.328,152.399 133.417,152.102 132.442,152.148C130.964,152.217 129.62,152.718 128.442,153.629C126.589,155.062 125.422,156.954 124.826,159.194C124.466,160.543 124.464,161.912 124.971,163.239C125.414,164.401 126.263,165.168 127.48,165.382C128.164,165.502 128.908,165.485 129.592,165.353C131.017,165.079 132.136,164.227 133.056,163.141C133.607,162.489 134.065,161.758 134.567,161.063C134.688,160.895 134.814,160.73 134.938,160.564C134.979,160.577 135.02,160.59 135.061,160.603C134.998,161.524 134.936,162.445 134.868,163.448C134.584,163.618 134.34,163.776 134.085,163.915C132.815,164.607 131.564,165.327 130.449,166.261C128.668,167.751 127.558,169.603 127.221,171.929C127.097,172.785 127.138,173.593 127.455,174.376C127.857,175.367 128.573,176.005 129.653,176.24C130.286,176.377 130.872,176.249 131.456,176.077C133.446,175.491 134.864,174.204 135.859,172.419C136.517,171.237 136.996,169.978 137.344,168.674C137.608,167.684 137.813,166.679 138.061,165.608C138.219,165.511 138.42,165.376 138.63,165.257C140.51,164.196 142.336,163.053 143.999,161.669C144.332,161.391 144.664,161.077 144.891,160.714C145.292,160.078 145.176,159.344 144.688,158.814L144.688,158.814ZM132.827,157.254C132.182,158.49 131.491,159.698 130.619,160.793C130.232,161.28 129.765,161.665 129.207,161.936C128.82,162.124 128.779,162.121 128.206,162.02C127.777,161.337 127.934,160.602 128.137,159.908C128.573,158.42 129.348,157.139 130.643,156.223C131.349,155.723 131.984,155.541 132.823,155.638C132.959,155.812 133.121,156.02 133.309,156.261C133.144,156.603 132.995,156.933 132.827,157.254L132.827,157.254ZM131.716,172.212C131.336,172.529 131.186,172.578 130.59,172.722C130.616,172.416 130.608,172.13 130.67,171.859C130.958,170.587 131.693,169.598 132.694,168.796C133.066,168.498 133.42,168.159 134.021,167.953C133.514,169.607 133.018,171.124 131.716,172.212Z" style="fill-rule:nonzero;"/>
        </g>
    </g>
</svg>
